<?xml version="1.0" encoding="utf-8"?>
<!-- Generator: Adobe Illustrator 24.0.0, SVG Export Plug-In . SVG Version: 6.00 Build 0)  -->
<svg version="1.1" id="Layer_1" xmlns="http://www.w3.org/2000/svg" xmlns:xlink="http://www.w3.org/1999/xlink" x="0px" y="0px"
	 viewBox="0 0 800 800" style="enable-background:new 0 0 800 800;" xml:space="preserve">
<style type="text/css">
	.st0{fill:#FFE8B6;}
	.st1{fill:#D99E82;}
	.st2{fill:#BE1931;}
	.st3{fill:#F5F8FA;}
	.st4{fill:#292F33;}
	.st5{fill:#A0041E;}
</style>
<path class="st0" d="M574.8,116.7c12.8-1.5,24.4,7.3,26.5,20l78.6,551.6c1.9,12.6-14.4,25.6-36.1,28.1c-21.7,2.5-40.4-6.4-41.5-19.1
	l-48.8-555C552.7,129.3,562,118.1,574.8,116.7z M481.6,122.3c12.8-0.1,23.5,9.9,24.1,22.7l18.8,556.8c0.5,12.7-17,23.9-38.8,24
	c-21.8,0.1-39.4-10.7-39.1-23.5l11.2-557C458.3,132.6,468.8,122.4,481.6,122.3L481.6,122.3z M388.5,118
	c12.8,1.3,22.3,12.4,21.5,25.2l-41.1,555.6c-0.9,12.7-19.4,21.9-41.1,19.7c-21.7-2.2-38-14.9-36.4-27.5l70.9-552.6
	C364.2,125.7,375.7,116.7,388.5,118L388.5,118z"/>
<path class="st1" d="M528.2,120.8c12.8-0.8,24,8.6,25.3,21.4l48.8,555c1.2,12.7-15.7,24.8-37.5,26.1c-21.8,1.3-40-8.6-40.3-21.3
	l-18.8-556.8C505.5,132.2,515.4,121.5,528.2,120.8L528.2,120.8z M435,121.4c12.8,0.6,22.9,11.2,22.8,24l-11.2,557
	c-0.2,12.8-18.2,22.9-40,21.9c-21.8-1-38.8-12.8-37.8-25.5l41.1-555.6C411.1,130.4,422.2,120.8,435,121.4L435,121.4z"/>
<path class="st2" d="M751,703.7l-23,3.3c-25.4,3.6-48.9-14-52.6-39.3l-73.2-505.4c-3.6-25.4,14-48.9,39.3-52.6l23-3.3
	c25.4-3.6,48.9,14,52.6,39.3l73.2,505.4C793.9,676.4,776.3,699.9,751,703.7L751,703.7z"/>
<ellipse transform="matrix(0.9563 -0.2922 0.2922 0.9563 -28.351 206.7107)" class="st3" cx="677.8" cy="198.3" rx="23.2" ry="23.2"/>
<ellipse transform="matrix(0.9563 -0.2922 0.2922 0.9563 -28.351 206.7107)" class="st3" cx="677.8" cy="198.3" rx="23.2" ry="23.2"/>
<ellipse transform="matrix(0.9908 -0.1353 0.1353 0.9908 -29.8207 95.4801)" class="st3" cx="687.7" cy="267.2" rx="23.2" ry="23.2"/>
<ellipse transform="matrix(1 -2.552856e-03 2.552856e-03 1 -0.8558 1.7822)" class="st3" cx="697.7" cy="336.1" rx="23.2" ry="23.2"/>
<ellipse transform="matrix(0.9908 -0.1353 0.1353 0.9908 -48.2826 99.449)" class="st3" cx="707.7" cy="405" rx="23.2" ry="23.2"/>
<ellipse transform="matrix(0.9908 -0.1353 0.1353 0.9908 -57.5126 101.4315)" class="st3" cx="717.7" cy="474" rx="23.2" ry="23.2"/>
<circle class="st3" cx="727.7" cy="542.9" r="23.2"/>
<circle class="st3" cx="737.7" cy="611.8" r="23.2"/>
<path class="st2" d="M259.8,717.3L51.9,696.2c-25.5-2.7-44-25.4-41.5-50.9l51.5-508.1c2.6-25.5,25.4-44,50.9-41.5l207.9,21.1
	c25.5,2.7,44,25.4,41.5,50.9l-51.5,508.1C308,701.2,285.2,719.8,259.8,717.3L259.8,717.3z"/>
<path class="st3" d="M225.1,177.1l-123.3-12.5c-10.6-1.1-18.3-10.5-17.2-21.1l0.8-7.8c1.1-10.6,10.5-18.3,21.1-17.2l123.3,12.5
	C240.3,132,248,141.5,247,152l-0.8,7.8C245.1,170.4,235.7,178.1,225.1,177.1L225.1,177.1z M218.1,246.4L94.8,233.9
	c-10.6-1.1-18.3-10.5-17.2-21.1l0.8-7.8c1.1-10.6,10.5-18.3,21.1-17.2l123.3,12.5c10.6,1.1,18.3,10.5,17.2,21.1l-0.8,7.8
	C238.1,239.7,228.6,247.4,218.1,246.4L218.1,246.4z M211,315.7L87.7,303.2c-10.6-1.1-18.3-10.5-17.2-21.1l0.8-7.8
	c1.1-10.6,10.5-18.3,21.1-17.2l123.3,12.5c10.6,1.1,18.3,10.5,17.2,21.1l-0.8,7.8C231.1,309,221.6,316.7,211,315.7z M204,385
	L80.7,372.5c-10.6-1.1-18.3-10.5-17.2-21.1l0.8-7.8c1.1-10.6,10.5-18.3,21.1-17.2l123.3,12.5c10.6,1.1,18.3,10.5,17.2,21.1l-0.8,7.8
	C224.1,378.3,214.6,386,204,385z M197,454.2L73.7,441.7c-10.6-1.1-18.3-10.5-17.2-21.1l0.8-7.8c1.1-10.6,10.5-18.3,21.1-17.2
	L201.7,408c10.6,1.1,18.3,10.5,17.2,21.1l-0.8,7.8C217,447.6,207.6,455.3,197,454.2z M190,523.5L66.7,511
	c-10.6-1.1-18.3-10.5-17.2-21.1l0.8-7.8c1.1-10.6,10.5-18.3,21.1-17.2l123.3,12.5c10.6,1.1,18.3,10.5,17.2,21.1l-0.8,7.8
	C210,516.9,200.6,524.6,190,523.5z M183,592.8L59.7,580.3c-10.6-1.1-18.3-10.5-17.2-21.1l0.8-7.8c1.1-10.6,10.5-18.3,21.1-17.2
	l123.3,12.5c10.6,1.1,18.3,10.5,17.2,21.1l-0.8,7.8C203,586.2,193.6,593.9,183,592.8z M176,662.1L52.7,649.6
	c-10.6-1.1-18.3-10.5-17.2-21.1l0.8-7.8c1.1-10.6,10.5-18.3,21.1-17.2l123.3,12.5c10.6,1.1,18.3,10.5,17.2,21.1l-0.8,7.8
	C196,655.5,186.5,663.2,176,662.1z"/>
<path class="st4" d="M168.7,194.7l54,5.5c10.6,1,20-6.7,21.1-17.2l0.8-7.8c1-10.6-6.7-20-17.2-21.1l-54-5.5
	c-10.6-1-20,6.7-21.1,17.2l-0.8,7.8C150.4,184.2,158.2,193.6,168.7,194.7L168.7,194.7z M161.7,264l54,5.5c10.6,1,20-6.7,21.1-17.2
	l0.8-7.8c1-10.6-6.7-20-17.2-21.1l-54-5.5c-10.6-1-20,6.7-21.1,17.2l-0.8,7.8C143.4,253.5,151.1,262.9,161.7,264L161.7,264z
	 M147.7,402.6l54,5.5c10.6,1,20-6.7,21.1-17.2l0.8-7.9c1-10.6-6.7-20-17.2-21.1l-54-5.5c-10.6-1-20,6.7-21.1,17.2l-0.8,7.8
	C129.4,392,137.1,401.5,147.7,402.6L147.7,402.6z M140.7,471.9l54,5.5c10.6,1,20-6.7,21.1-17.2l0.8-7.8c1-10.6-6.7-20-17.2-21.1
	l-54-5.5c-10.6-1-20,6.7-21.1,17.2l-0.8,7.8C122.4,461.3,130.1,470.8,140.7,471.9L140.7,471.9z M133.6,541.2l54,5.5
	c10.6,1,20-6.7,21.1-17.2l0.8-7.8c1-10.6-6.7-20-17.2-21.1l-54-5.5c-10.6-1-20,6.7-21.1,17.2l-0.8,7.8
	C115.4,530.6,123.1,540,133.6,541.2z M119.6,679.7l54,5.5c10.6,1,20-6.7,21.1-17.2l0.8-7.8c1-10.6-6.7-20-17.2-21.1l-54-5.5
	c-10.6-1-20,6.7-21.1,17.2l-0.8,7.8C101.3,669.2,109,678.6,119.6,679.7z"/>
<path class="st5" d="M279.3,159.2l50.1,5.1c5.3,0.5,10-3.3,10.6-8.6l0.4-3.9c0.5-5.3-3.3-10-8.6-10.6l-50.1-5.1
	c-5.3-0.5-10,3.3-10.6,8.6l-0.4,3.9C270.2,154,274,158.7,279.3,159.2z M274.6,205.4l50.1,5.1c5.3,0.5,10-3.3,10.6-8.6l0.4-3.9
	c0.5-5.3-3.3-10-8.6-10.6l-50.1-5.1c-5.3-0.5-10,3.3-10.6,8.6l-0.4,3.9C265.5,200.2,269.3,204.9,274.6,205.4L274.6,205.4z
	 M269.9,251.6l50.1,5.1c5.3,0.5,10-3.3,10.6-8.6l0.4-3.9c0.5-5.3-3.3-10-8.6-10.6l-50.1-5.1c-5.3-0.5-10,3.3-10.6,8.6l-0.4,3.9
	C260.8,246.4,264.7,251.1,269.9,251.6z M265.3,297.8l50.1,5.1c5.3,0.5,10-3.3,10.6-8.6l0.4-3.9c0.5-5.3-3.3-10-8.6-10.6l-50.1-5.1
	c-5.3-0.5-10,3.3-10.6,8.6l-0.4,3.9C256.1,292.6,260,297.3,265.3,297.8z M260.6,344l50.1,5.1c5.3,0.5,10-3.3,10.6-8.6l0.4-3.9
	c0.5-5.3-3.3-10-8.6-10.6l-50.1-5.1c-5.3-0.5-10,3.3-10.6,8.6l-0.4,3.9C251.4,338.7,255.3,343.5,260.6,344z M255.9,390.2l50.1,5.1
	c5.3,0.5,10-3.3,10.6-8.6l0.4-3.9c0.5-5.3-3.3-10-8.6-10.6l-50.1-5.1c-5.3-0.5-10,3.3-10.6,8.6l-0.4,3.9
	C246.8,384.9,250.6,389.7,255.9,390.2L255.9,390.2z M251.2,436.4l50.1,5.1c5.3,0.5,10-3.3,10.6-8.6l0.4-3.9c0.5-5.3-3.3-10-8.6-10.6
	l-50.1-5.1c-5.3-0.5-10,3.3-10.6,8.6l-0.4,3.9C242.1,431.1,246,435.9,251.2,436.4z M246.6,482.6l50.1,5.1c5.3,0.5,10-3.3,10.6-8.6
	l0.4-3.9c0.5-5.3-3.3-10-8.6-10.6l-50.1-5.1c-5.3-0.5-10,3.3-10.6,8.6l-0.4,3.9C237.4,477.3,241.2,482,246.6,482.6
	C246.5,482.6,246.5,482.6,246.6,482.6z M241.9,528.8l50.1,5.1c5.3,0.5,10-3.3,10.6-8.6l0.4-3.9c0.5-5.3-3.3-10-8.6-10.6l-50.1-5.1
	c-5.3-0.5-10,3.3-10.6,8.6l-0.4,3.9C232.7,523.5,236.6,528.2,241.9,528.8z M237.2,575l50.1,5.1c5.3,0.5,10-3.3,10.6-8.6l0.4-3.9
	c0.5-5.3-3.3-10-8.6-10.6l-50.1-5.1c-5.3-0.5-10,3.3-10.6,8.6l-0.4,3.9C228,569.7,231.9,574.4,237.2,575z M232.5,621.2l50.1,5.1
	c5.3,0.5,10-3.3,10.6-8.6l0.4-3.9c0.5-5.3-3.3-10-8.6-10.6l-50.1-5.1c-5.3-0.5-10,3.3-10.6,8.6l-0.4,3.9
	C223.4,615.9,227.2,620.6,232.5,621.2z M227.8,667.4l50.1,5.1c5.3,0.5,10-3.3,10.6-8.6l0.4-3.9c0.5-5.3-3.3-10-8.6-10.6l-50.1-5.1
	c-5.3-0.5-10,3.3-10.6,8.6l-0.4,3.9C218.7,662.1,222.5,666.8,227.8,667.4z"/>
</svg>
